<?xml version="1.0" encoding="UTF-8"?>
<!-- Created with Inkscape (http://www.inkscape.org/) -->
<svg width="64" height="64" version="1.1" viewBox="0 0 16.933 16.933" xml:space="preserve" xmlns="http://www.w3.org/2000/svg"><g><rect x=".79375" y="1.3229" width="15.346" height="15.346" rx=".79375" ry=".79375" fill="#839291"/><rect x=".79375" y="-1.1102e-16" width="15.346" height="15.346" rx=".79375" ry=".79375" fill="#f6f7f8"/><path d="m7.0555 12.6c-0.74465-0.3159-0.95869-1.6182-0.36983-2.2503 0.46362-0.49763 1.6357-0.49763 2.0994 0 0.41466 0.44509 0.43883 1.4264 0.04694 1.9059-0.32094 0.39268-1.2418 0.57122-1.7765 0.34441zm-0.59468-3.5528c-0.16008-0.17689-0.26888-0.57237-0.26888-0.97741 0-0.74677 0.17578-0.88124 1.7722-1.3557 0.83424-0.24796 1.1597-0.63736 0.89081-1.0658-0.24809-0.39526-1.7805-0.46712-2.6059-0.12221-0.57953 0.24214-0.63299 0.24003-0.83277-0.032904-0.11742-0.16041-0.19196-0.57678-0.16566-0.92527 0.07538-0.99854 0.5974-1.2859 2.4862-1.3685 1.9085-0.18129 3.6623 0.74059 3.9194 2.4639 0.0781 0.5698 0.02029 0.89768-0.26057 1.4779-0.45748 0.94504-1.2619 1.4313-3.0948 1.8706-1.6658 0.39931-1.5133 0.39637-1.8399 0.035433z" fill="#4d4d4d" stroke-width=".16246"/></g></svg>
