<?xml version="1.0" encoding="UTF-8"?>
<!-- Created with Inkscape (http://www.inkscape.org/) -->
<svg width="64" height="64" version="1.1" viewBox="0 0 16.933 16.933" xml:space="preserve" xmlns="http://www.w3.org/2000/svg"><path d="m5.9572 16.755c-1.3241-0.56171-1.7047-2.8774-0.6576-4.0013 0.82437-0.88485 2.9085-0.88485 3.733 0 0.73732 0.79142 0.78029 2.5363 0.08347 3.3889-0.57067 0.69823-2.2081 1.0157-3.1588 0.6124zm-1.0574-6.3173c-0.28464-0.31453-0.4781-1.0177-0.4781-1.738 0-1.3278 0.31256-1.567 3.1512-2.4106 1.4834-0.4409 2.0621-1.1333 1.584-1.8951-0.44114-0.70282-3.1659-0.8306-4.6336-0.2173-1.0305 0.43055-1.1255 0.4268-1.4808-0.058507-0.20879-0.28523-0.34133-1.0256-0.29456-1.6452 0.13403-1.7755 1.0623-2.2865 4.4208-2.4334 3.3935-0.32236 6.512 1.3169 6.9692 4.3811 0.13887 1.0132 0.03608 1.5962-0.46332 2.6279-0.81346 1.6804-2.2438 2.545-5.5029 3.3262-2.962 0.71002-2.6908 0.70479-3.2716 0.063z" fill="#4d4d4d" stroke-width=".28887"/></svg>
